<svg width="18" height="18" viewBox="0 0 18 18" fill="none" xmlns="http://www.w3.org/2000/svg">
<path d="M9 15.75C7.7595 15.75 6.75 14.7405 6.75 13.5V9.92701C5.89275 10.695 4.48125 10.6613 3.65925 9.84076C3.23781 9.41863 3.0011 8.84651 3.0011 8.25001C3.0011 7.65351 3.23781 7.08139 3.65925 6.65926L9 1.31851L14.3407 6.65926C14.7622 7.08139 14.9989 7.65351 14.9989 8.25001C14.9989 8.84651 14.7622 9.41863 14.3407 9.84076C13.5202 10.662 12.1065 10.6958 11.25 9.92701V13.5C11.25 14.7405 10.2405 15.75 9 15.75ZM8.25 6.31051V13.5C8.25864 13.6931 8.34143 13.8755 8.48113 14.0091C8.62084 14.1427 8.80669 14.2172 9 14.2172C9.1933 14.2172 9.37915 14.1427 9.51886 14.0091C9.65857 13.8755 9.74136 13.6931 9.75 13.5V6.31051L12.2197 8.78026C12.3625 8.91678 12.5525 8.99298 12.75 8.99298C12.9475 8.99298 13.1375 8.91678 13.2802 8.78026C13.35 8.71067 13.4053 8.62802 13.443 8.53703C13.4807 8.44605 13.5001 8.34851 13.5001 8.25001C13.5001 8.15151 13.4807 8.05398 13.443 7.96299C13.4053 7.87201 13.35 7.78935 13.2802 7.71976L9 3.43951L4.71975 7.71976C4.65004 7.78935 4.59474 7.87201 4.557 7.96299C4.51927 8.05398 4.49985 8.15151 4.49985 8.25001C4.49985 8.34851 4.51927 8.44605 4.557 8.53703C4.59474 8.62802 4.65004 8.71067 4.71975 8.78026C4.86252 8.91678 5.05245 8.99298 5.25 8.99298C5.44754 8.99298 5.63747 8.91678 5.78025 8.78026L8.25 6.31051Z" fill="#A8B64F"/>
</svg>
