<svg width="18" height="18" viewBox="0 0 18 18" fill="none" xmlns="http://www.w3.org/2000/svg">
<path d="M9 2.24999C10.2405 2.24999 11.25 3.25949 11.25 4.49999L11.25 8.07299C12.1073 7.30499 13.5188 7.33874 14.3408 8.15924C14.7622 8.58137 14.9989 9.15349 14.9989 9.74999C14.9989 10.3465 14.7622 10.9186 14.3408 11.3407L9 16.6815L3.65925 11.3407C3.23781 10.9186 3.0011 10.3465 3.0011 9.74999C3.0011 9.15349 3.23781 8.58137 3.65925 8.15924C4.47975 7.33799 5.8935 7.30424 6.75 8.07299V4.49999C6.75 3.25949 7.7595 2.24999 9 2.24999ZM9.75 11.6895L9.75 4.49999C9.74136 4.30688 9.65857 4.12454 9.51887 3.99094C9.37916 3.85735 9.19331 3.78279 9 3.78279C8.8067 3.78279 8.62085 3.85735 8.48114 3.99094C8.34143 4.12454 8.25864 4.30688 8.25 4.49999L8.25 11.6895L5.78025 9.21974C5.63748 9.08322 5.44755 9.00702 5.25 9.00702C5.05246 9.00702 4.86253 9.08322 4.71975 9.21974C4.65004 9.28933 4.59474 9.37198 4.55701 9.46297C4.51927 9.55395 4.49985 9.65149 4.49985 9.74999C4.49985 9.84849 4.51927 9.94602 4.55701 10.037C4.59474 10.128 4.65004 10.2106 4.71975 10.2802L9 14.5605L13.2803 10.2802C13.35 10.2106 13.4053 10.128 13.443 10.037C13.4807 9.94602 13.5002 9.84849 13.5002 9.74999C13.5002 9.65149 13.4807 9.55395 13.443 9.46297C13.4053 9.37198 13.35 9.28933 13.2803 9.21974C13.1375 9.08322 12.9475 9.00702 12.75 9.00702C12.5525 9.00702 12.3625 9.08322 12.2198 9.21974L9.75 11.6895Z" fill="#A8B64F"/>
</svg>
