<svg width="24" height="24" viewBox="0 0 24 24" fill="none" xmlns="http://www.w3.org/2000/svg">
<path d="M5.82397 3.632L12 9.808L18.144 3.664C18.2797 3.51955 18.4432 3.40399 18.6246 3.32426C18.8061 3.24453 19.0018 3.20226 19.2 3.2C19.6243 3.2 20.0313 3.36857 20.3313 3.66863C20.6314 3.96869 20.8 4.37565 20.8 4.8C20.8037 4.99616 20.7673 5.19102 20.693 5.37261C20.6187 5.5542 20.5081 5.7187 20.368 5.856L14.144 12L20.368 18.224C20.6317 18.482 20.7863 18.8313 20.8 19.2C20.8 19.6243 20.6314 20.0313 20.3313 20.3314C20.0313 20.6314 19.6243 20.8 19.2 20.8C18.9961 20.8085 18.7926 20.7744 18.6026 20.7001C18.4125 20.6257 18.24 20.5126 18.096 20.368L12 14.192L5.83997 20.352C5.70478 20.4916 5.54327 20.6031 5.36477 20.68C5.18627 20.7569 4.99431 20.7977 4.79997 20.8C4.37562 20.8 3.96865 20.6314 3.6686 20.3314C3.36854 20.0313 3.19997 19.6243 3.19997 19.2C3.19624 19.0038 3.23263 18.809 3.30692 18.6274C3.38121 18.4458 3.49182 18.2813 3.63197 18.144L9.85597 12L3.63197 5.776C3.36826 5.51801 3.21363 5.16866 3.19997 4.8C3.19997 4.37565 3.36854 3.96869 3.6686 3.66863C3.96865 3.36857 4.37562 3.2 4.79997 3.2C5.18397 3.2048 5.55197 3.36 5.82397 3.632Z" fill="#DC3E22"/>
</svg>
